<svg width="42" height="40" viewBox="0 0 42 40" fill="none" xmlns="http://www.w3.org/2000/svg">
<g id="Icon" clip-path="url(#clip0_1_69)">
<path id="Vector" d="M13.0659 19.6264C10.7604 19.6976 8.87484 20.6084 7.40905 22.3588H4.54862C3.38168 22.3588 2.39975 22.0706 1.60281 21.4942C0.805877 20.9179 0.40741 20.0747 0.40741 18.9647C0.40741 13.9412 1.28973 11.4294 3.05437 11.4294C3.13976 11.4294 3.44928 11.5788 3.98294 11.8777C4.51661 12.1765 5.21037 12.4789 6.06422 12.7849C6.91808 13.0909 7.76483 13.2438 8.60445 13.2438C9.55793 13.2438 10.5043 13.0802 11.4435 12.7529C11.3724 13.2794 11.3368 13.749 11.3368 14.1617C11.3368 16.1398 11.9132 17.9614 13.0659 19.6264ZM35.9279 33.2241C35.9279 34.9319 35.4085 36.2802 34.3696 37.2693C33.3308 38.2583 31.9504 38.7529 30.2284 38.7529H11.5716C9.84966 38.7529 8.46926 38.2583 7.4304 37.2693C6.39154 36.2802 5.87211 34.9319 5.87211 33.2241C5.87211 32.4699 5.89701 31.7334 5.94682 31.0148C5.99663 30.2961 6.09624 29.5205 6.24567 28.688C6.39509 27.8555 6.58365 27.0835 6.81135 26.3719C7.03905 25.6604 7.34501 24.9666 7.72925 24.2906C8.11349 23.6147 8.55465 23.0383 9.05273 22.5616C9.55081 22.0848 10.1592 21.7042 10.8779 21.4195C11.5965 21.1349 12.3899 20.9926 13.258 20.9926C13.4003 20.9926 13.7063 21.1456 14.1759 21.4516C14.6455 21.7575 15.1649 22.0991 15.7342 22.4762C16.3034 22.8533 17.0648 23.1948 18.0182 23.5008C18.9717 23.8068 19.9323 23.9598 20.9 23.9598C21.8677 23.9598 22.8283 23.8068 23.7818 23.5008C24.7353 23.1948 25.4966 22.8533 26.0659 22.4762C26.6351 22.0991 27.1545 21.7575 27.6242 21.4516C28.0938 21.1456 28.3997 20.9926 28.5421 20.9926C29.4101 20.9926 30.2035 21.1349 30.9222 21.4195C31.6409 21.7042 32.2492 22.0848 32.7473 22.5616C33.2454 23.0383 33.6866 23.6147 34.0708 24.2906C34.455 24.9666 34.761 25.6604 34.9887 26.3719C35.2164 27.0835 35.4049 27.8555 35.5544 28.688C35.7038 29.5205 35.8034 30.2961 35.8532 31.0148C35.903 31.7334 35.9279 32.4699 35.9279 33.2241ZM12.4682 2.10098C12.4682 2.10098 12.735 2.36781 13.2687 2.90147C13.8023 3.43513 14.0692 4.45621 14.0692 5.96469C14.0692 7.47317 13.5355 8.76108 12.4682 9.8284C11.4008 10.8957 10.1129 11.4294 8.60445 11.4294C7.09597 11.4294 5.80807 10.8957 4.74074 9.8284C3.67342 8.76108 3.13976 7.47317 3.13976 5.96469C3.13976 4.45621 3.67342 3.1683 4.74074 2.10098C5.80807 1.03366 7.09597 0.499992 8.60445 0.499992C10.1129 0.499992 11.4008 1.03366 12.4682 2.10098ZM26.6956 8.36617C26.6956 8.36617 27.0958 8.76641 27.8963 9.56691C28.6968 10.3674 29.0971 11.899 29.0971 14.1617C29.0971 16.4245 28.2966 18.3563 26.6956 19.9573C25.0946 21.5583 23.1627 22.3588 20.9 22.3588C18.6373 22.3588 16.7054 21.5583 15.1045 19.9573C13.5035 18.3563 12.703 16.4245 12.703 14.1617C12.703 11.899 13.5035 9.96715 15.1045 8.36617C16.7054 6.76518 18.6373 5.96469 20.9 5.96469C23.1627 5.96469 25.0946 6.76518 26.6956 8.36617ZM41.3926 18.9647C41.3926 20.0747 40.9942 20.9179 40.1972 21.4942C39.4003 22.0706 38.4184 22.3588 37.2514 22.3588H34.391C32.9252 20.6084 31.0396 19.6976 28.7342 19.6264C29.8869 17.9614 30.4632 16.1398 30.4632 14.1617C30.4632 13.749 30.4277 13.2794 30.3565 12.7529C31.2958 13.0802 32.2421 13.2438 33.1956 13.2438C34.0352 13.2438 34.882 13.0909 35.7358 12.7849C36.5897 12.4789 37.2834 12.1765 37.8171 11.8777C38.3508 11.5788 38.6603 11.4294 38.7457 11.4294C40.5103 11.4294 41.3926 13.9412 41.3926 18.9647ZM37.0593 2.10098C37.0593 2.10098 37.3261 2.36781 37.8598 2.90147C38.3935 3.43513 38.6603 4.45621 38.6603 5.96469C38.6603 7.47317 38.1266 8.76108 37.0593 9.8284C35.992 10.8957 34.7041 11.4294 33.1956 11.4294C31.6871 11.4294 30.3992 10.8957 29.3319 9.8284C28.2646 8.76108 27.7309 7.47317 27.7309 5.96469C27.7309 4.45621 28.2646 3.1683 29.3319 2.10098C30.3992 1.03366 31.6871 0.499992 33.1956 0.499992C34.7041 0.499992 35.992 1.03366 37.0593 2.10098Z" fill="#FF6666"/>
</g>
<defs>
<clipPath id="clip0_1_69">
<rect width="41.8" height="39" fill="white" transform="matrix(1 0 0 -1 0 39.5)"/>
</clipPath>
</defs>
</svg>
