<svg width="37" height="40" viewBox="0 0 37 40" fill="none" xmlns="http://www.w3.org/2000/svg">
<g id="Icon">
<path id="Vector" d="M35.1231 10.7036C35.6924 11.5148 35.8204 12.4327 35.5074 13.4573L29.6371 32.7972C29.3667 33.708 28.8224 34.4729 28.0041 35.0919C27.1858 35.711 26.3141 36.0205 25.3891 36.0205H5.68634C4.59056 36.0205 3.53391 35.6398 2.51639 34.8785C1.49888 34.1171 0.790884 33.1814 0.392417 32.0714C0.0508735 31.1179 0.0366425 30.2143 0.349724 29.3604C0.349724 29.3035 0.371071 29.1114 0.413763 28.7841C0.456456 28.4567 0.484918 28.1935 0.499149 27.9942C0.51338 27.8804 0.492034 27.7274 0.43511 27.5353C0.378186 27.3432 0.35684 27.2044 0.371071 27.119C0.399532 26.9625 0.456456 26.8131 0.541842 26.6708C0.627228 26.5284 0.744634 26.3612 0.894059 26.1691C1.04348 25.977 1.16089 25.8098 1.24628 25.6675C1.57359 25.1267 1.89379 24.4756 2.20687 23.7143C2.51995 22.9529 2.73341 22.3018 2.84726 21.7611C2.88995 21.6188 2.89351 21.4053 2.85793 21.1207C2.82236 20.8361 2.8188 20.6368 2.84726 20.523C2.88995 20.3664 3.01092 20.1672 3.21015 19.9253C3.40938 19.6833 3.53035 19.5197 3.57304 19.4343C3.87189 18.922 4.17074 18.2674 4.46959 17.4704C4.76844 16.6735 4.94633 16.0331 5.00325 15.5492C5.01749 15.4212 4.9997 15.1935 4.94989 14.8662C4.90008 14.5388 4.90364 14.3396 4.96056 14.2685C5.01749 14.0835 5.17403 13.8664 5.43018 13.6174C5.68634 13.3683 5.84288 13.2082 5.89981 13.1371C6.17019 12.7671 6.4726 12.1658 6.80703 11.3333C7.14146 10.5008 7.33714 9.81416 7.39406 9.27338C7.40829 9.15953 7.38694 8.97809 7.33002 8.72905C7.2731 8.48 7.25886 8.29144 7.28733 8.16336C7.31579 8.04952 7.37983 7.92144 7.47944 7.77913C7.57906 7.63682 7.70714 7.47316 7.86368 7.28816C8.02022 7.10316 8.14119 6.95373 8.22657 6.83988C8.34042 6.66911 8.45782 6.45209 8.57879 6.18882C8.69975 5.92554 8.80648 5.6765 8.89898 5.44169C8.99149 5.20688 9.10533 4.95072 9.24053 4.67322C9.37572 4.39571 9.51447 4.16802 9.65679 3.99013C9.7991 3.81224 9.98766 3.64503 10.2225 3.48849C10.4573 3.33195 10.7134 3.25012 10.9909 3.243C11.2684 3.23589 11.6064 3.27502 12.0049 3.36041L11.9836 3.42445C12.5243 3.29637 12.8872 3.23233 13.0722 3.23233H29.3169C30.37 3.23233 31.1811 3.6308 31.7504 4.42773C32.3196 5.22467 32.4477 6.14968 32.1346 7.20277L26.2857 26.5427C25.7734 28.2362 25.2646 29.3284 24.7594 29.8194C24.2542 30.3103 23.3399 30.5558 22.0164 30.5558H3.46631C3.08207 30.5558 2.81168 30.6625 2.65514 30.876C2.4986 31.1037 2.49149 31.4097 2.6338 31.7939C2.97534 32.7901 3.99997 33.2882 5.70769 33.2882H25.4105C25.8232 33.2882 26.2216 33.1779 26.6059 32.9573C26.9901 32.7367 27.2392 32.4414 27.353 32.0714L33.757 11.0024C33.8566 10.6894 33.8921 10.2838 33.8637 9.7857C34.4045 9.99916 34.8243 10.3051 35.1231 10.7036ZM12.4105 10.7463C12.3536 10.9313 12.3678 11.0914 12.4532 11.2266C12.5386 11.3618 12.6809 11.4294 12.8801 11.4294H25.8588C26.0438 11.4294 26.2252 11.3618 26.4031 11.2266C26.581 11.0914 26.6984 10.9313 26.7553 10.7463L27.2036 9.38011C27.2605 9.19511 27.2463 9.03501 27.1609 8.89982C27.0755 8.76462 26.9332 8.69703 26.734 8.69703H13.7553C13.5703 8.69703 13.3889 8.76462 13.211 8.89982C13.0331 9.03501 12.9157 9.19511 12.8588 9.38011L12.4105 10.7463ZM10.6387 16.211C10.5818 16.396 10.596 16.5561 10.6814 16.6913C10.7668 16.8265 10.9091 16.8941 11.1083 16.8941H24.087C24.272 16.8941 24.4534 16.8265 24.6313 16.6913C24.8092 16.5561 24.9266 16.396 24.9836 16.211L25.4318 14.8448C25.4888 14.6598 25.4745 14.4997 25.3891 14.3645C25.3037 14.2293 25.1614 14.1617 24.9622 14.1617H11.9836C11.7985 14.1617 11.6171 14.2293 11.4392 14.3645C11.2613 14.4997 11.1439 14.6598 11.087 14.8448L10.6387 16.211Z" fill="#FF6666"/>
</g>
</svg>
